<svg width="50" height="51" viewBox="0 0 50 51" fill="none" xmlns="http://www.w3.org/2000/svg">
<g clip-path="url(#clip0_257_114)">
<rect x="-14" y="-13" width="80" height="80" rx="40" fill="white"/>
<mask id="mask0_257_114" style="mask-type:luminance" maskUnits="userSpaceOnUse" x="13" y="14" width="24" height="24">
<path d="M37 14H13V38H37V14Z" fill="white"/>
</mask>
<g mask="url(#mask0_257_114)">
<path d="M13 16.7879C13 15.9798 13.2694 15.3131 13.8081 14.7879C14.3468 14.2626 15.0471 14 15.9091 14C16.7557 14 17.4406 14.2586 17.9639 14.7758C18.5026 15.3091 18.772 16.004 18.772 16.8606C18.772 17.6364 18.5103 18.2828 17.987 18.8C17.4483 19.3333 16.7403 19.6 15.8629 19.6H15.8398C14.9933 19.6 14.3083 19.3333 13.785 18.8C13.2617 18.2667 13 17.5959 13 16.7879ZM13.3001 38V21.806H18.4257V38H13.3001ZM21.2655 38H26.391V28.9576C26.391 28.3919 26.4526 27.9555 26.5757 27.6485C26.7912 27.099 27.1183 26.6343 27.557 26.2545C27.9956 25.8747 28.5459 25.6848 29.2078 25.6848C30.9317 25.6848 31.7936 26.905 31.7936 29.3454V38H36.9192V28.7151C36.9192 26.3232 36.3804 24.5091 35.303 23.2727C34.2255 22.0364 32.8018 21.4182 31.0317 21.4182C29.0462 21.4182 27.4993 22.3151 26.391 24.1091V24.1576H26.3679L26.391 24.1091V21.806H21.2655C21.2963 22.3232 21.3117 23.9313 21.3117 26.6303C21.3117 29.3293 21.2963 33.1191 21.2655 38Z" fill="black"/>
</g>
</g>
<defs>
<clipPath id="clip0_257_114">
<rect y="0.5" width="50" height="50" rx="25" fill="white"/>
</clipPath>
</defs>
</svg>
